<svg aria-hidden="true" style="position: absolute; width: 0; height: 0; overflow: hidden;" version="1.1" xmlns="http://www.w3.org/2000/svg" xmlns:xlink="http://www.w3.org/1999/xlink">
<defs>
<symbol id="icon-search"  fill="none">
<title>search</title>
<path d="m11 19c4.4183 0 8-3.5817 8-8 0-4.4183-3.5817-8-8-8-4.4183 0-8 3.5817-8 8 0 4.4183 3.5817 8 8 8z" stroke="#7E7E7E" stroke-linecap="round" stroke-linejoin="round" stroke-width="2"/>
<path d="m21 21-4.35-4.35" stroke="#7E7E7E" stroke-linecap="round" stroke-linejoin="round" stroke-width="2"/>
</symbol>
<symbol id="icon-setting" viewBox="0 0 32 32">
<title>setting</title>
<path d="M16 30.173c-0.893 0-1.8-0.2-2.507-0.613l-7.333-4.227c-2.987-2.013-3.173-2.32-3.173-5.48v-7.707c0-3.16 0.173-3.467 3.107-5.453l7.387-4.267c1.4-0.813 3.6-0.813 5 0l7.36 4.24c2.987 2.013 3.173 2.32 3.173 5.48v7.693c0 3.16-0.173 3.467-3.107 5.453l-7.387 4.267c-0.72 0.413-1.627 0.613-2.52 0.613zM16 3.827c-0.56 0-1.107 0.107-1.493 0.333l-7.333 4.24c-2.173 1.467-2.173 1.467-2.173 3.747v7.693c0 2.28 0 2.28 2.227 3.787l7.28 4.2c0.787 0.453 2.213 0.453 3 0l7.333-4.24c2.16-1.467 2.16-1.467 2.16-3.747v-7.693c0-2.28 0-2.28-2.227-3.787l-7.28-4.2c-0.387-0.227-0.933-0.333-1.493-0.333z"></path>
<path d="M16 21c-2.76 0-5-2.24-5-5s2.24-5 5-5 5 2.24 5 5-2.24 5-5 5zM16 13c-1.653 0-3 1.347-3 3s1.347 3 3 3 3-1.347 3-3-1.347-3-3-3z"></path>
</symbol>
<symbol id="icon-d-square" viewBox="0 0 32 32">
<title>d-square</title>
<path d="M20 30.333h-8c-7.24 0-10.333-3.093-10.333-10.333v-8c0-7.24 3.093-10.333 10.333-10.333h8c7.24 0 10.333 3.093 10.333 10.333v8c0 7.24-3.093 10.333-10.333 10.333zM12 3.667c-6.147 0-8.333 2.187-8.333 8.333v8c0 6.147 2.187 8.333 8.333 8.333h8c6.147 0 8.333-2.187 8.333-8.333v-8c0-6.147-2.187-8.333-8.333-8.333h-8z"></path>
<path d="M16.001 17.44c-0.173 0-0.347-0.040-0.507-0.133l-7.067-4.080c-0.48-0.28-0.64-0.893-0.36-1.36 0.28-0.48 0.893-0.64 1.36-0.36l6.56 3.8 6.52-3.773c0.48-0.28 1.093-0.107 1.36 0.36s0.107 1.093-0.36 1.36l-7.013 4.053c-0.147 0.080-0.32 0.133-0.493 0.133z"></path>
<path d="M16 24.693c-0.547 0-1-0.453-1-1v-7.253c0-0.547 0.453-1 1-1s1 0.453 1 1v7.253c0 0.547-0.453 1-1 1z"></path>
<path d="M16 25c-0.773 0-1.533-0.173-2.147-0.507l-4.267-2.373c-1.28-0.707-2.267-2.4-2.267-3.867v-4.52c0-1.453 1-3.147 2.267-3.867l4.267-2.373c1.227-0.68 3.067-0.68 4.293 0l4.267 2.373c1.28 0.707 2.267 2.4 2.267 3.867v4.52c0 1.453-1 3.147-2.267 3.867l-4.267 2.373c-0.613 0.347-1.373 0.507-2.147 0.507zM16 9c-0.44 0-0.867 0.080-1.173 0.253l-4.267 2.373c-0.653 0.36-1.24 1.373-1.24 2.107v4.52c0 0.747 0.587 1.747 1.24 2.107l4.267 2.373c0.613 0.347 1.733 0.347 2.347 0l4.267-2.373c0.653-0.36 1.24-1.373 1.24-2.107v-4.52c0-0.747-0.587-1.747-1.24-2.107l-4.267-2.373c-0.307-0.173-0.733-0.253-1.173-0.253z"></path>
</symbol>
<symbol id="icon-user-square"  fill="none">
<title>user-square</title>
<path d="m15.001 22.75h-6c-1.32 0-2.42-0.13-3.35-0.41-0.34-0.1-0.56-0.43-0.54-0.78 0.25-2.99 3.28-5.3401 6.89-5.3401 3.61 0 6.63 2.3401 6.89 5.3401 0.03 0.36-0.19 0.68-0.54 0.78-0.93 0.28-2.03 0.41-3.35 0.41zm-8.28-1.69c0.66 0.13 1.41 0.19 2.28 0.19h6c0.87 0 1.62-0.06 2.28-0.19-0.53-1.92-2.72-3.3401-5.28-3.3401-2.56 0-4.75 1.4201-5.28 3.3401z" fill="#fff"/>
<path d="m15 2h-6c-5 0-7 2-7 7v6c0 3.78 1.14 5.85 3.86 6.62 0.22-2.6 2.89-4.65 6.14-4.65s5.92 2.05 6.14 4.65c2.72-0.77 3.86-2.84 3.86-6.62v-6c0-5-2-7-7-7zm-3 12.17c-1.98 0-3.58-1.61-3.58-3.59 0-1.98 1.6-3.58 3.58-3.58s3.58 1.6 3.58 3.58c0 1.98-1.6 3.59-3.58 3.59z" stroke="#fff" stroke-linecap="round" stroke-linejoin="round" stroke-width="1.5"/>
<path d="m12 14.92c-2.39 0-4.33-1.95-4.33-4.34 0-2.39 1.94-4.33 4.33-4.33 2.39 0 4.33 1.94 4.33 4.33 0 2.39-1.94 4.34-4.33 4.34zm0-7.17c-1.56 0-2.83 1.27-2.83 2.83 0 1.57 1.27 2.84 2.83 2.84s2.83-1.27 2.83-2.84c0-1.56-1.27-2.83-2.83-2.83z" fill="#fff"/>
</symbol>
<symbol id="icon-wallet-money"  fill="none">
<title>wallet-money</title>
<path d="m10.752 16.86v2.03c0 1.72-1.6 3.11-3.57 3.11s-3.58-1.39-3.58-3.11v-2.03c0 1.72 1.6 2.94 3.58 2.94 1.97 0 3.57-1.23 3.57-2.94z" stroke="#9197B3" stroke-linecap="round" stroke-linejoin="round" stroke-width="1.5"/>
<path d="m10.75 14.11c0 0.5-0.14 0.96-0.38 1.36-0.59004 0.97-1.8001 1.58-3.2001 1.58s-2.61-0.62-3.2-1.58c-0.24-0.4-0.37994-0.86-0.37994-1.36 0-0.86 0.39998-1.63 1.04-2.19 0.65-0.57 1.54-0.91 2.53-0.91s1.88 0.35 2.53 0.91c0.66004 0.55 1.06 1.33 1.06 2.19z" stroke="#9197B3" stroke-linecap="round" stroke-linejoin="round" stroke-width="1.5"/>
<path d="m10.752 14.11v2.75c0 1.72-1.6 2.94-3.57 2.94s-3.58-1.23-3.58-2.94v-2.75c0-1.72 1.6-3.11 3.58-3.11 0.99 0 1.88 0.35 2.53 0.91 0.63999 0.56 1.04 1.34 1.04 2.2z" stroke="#9197B3" stroke-linecap="round" stroke-linejoin="round" stroke-width="1.5"/>
<path d="m22 10.97v2.0601c0 0.55-0.44 0.9999-1 1.0199h-1.9601c-1.08 0-2.0699-0.79-2.1599-1.87-0.06-0.63 0.1799-1.22 0.5999-1.63 0.37-0.38 0.8801-0.59995 1.4401-0.59995h2.08c0.56 0.02 1 0.46995 1 1.02z" stroke="#9197B3" stroke-linecap="round" stroke-linejoin="round" stroke-width="1.5"/>
<path d="m2 10.5v-2c0-2.72 1.64-4.62 4.19-4.94 0.26-0.04 0.53-0.06 0.81-0.06h9c0.26 0 0.51 0.00999 0.75 0.04999 2.58 0.3 4.25 2.21 4.25 4.95v1.45h-2.08c-0.56 0-1.07 0.21999-1.44 0.59999-0.42 0.41-0.66 1-0.6 1.63 0.09 1.08 1.08 1.87 2.16 1.87h1.96v1.45c0 3-2 5-5 5h-2.5" stroke="#9197B3" stroke-linecap="round" stroke-linejoin="round" stroke-width="1.5"/>
</symbol>
<symbol id="icon-discount-shape" viewBox="0 0 32 32">
<title>discount-shape</title>
<path d="M16 30.333c-0.84 0-1.627-0.32-2.213-0.92l-2.027-2.027c-0.16-0.16-0.587-0.333-0.8-0.333h-2.88c-1.733 0-3.133-1.4-3.133-3.133v-2.88c0-0.213-0.173-0.64-0.333-0.8l-2.027-2.027c-0.587-0.587-0.92-1.373-0.92-2.213s0.32-1.627 0.92-2.213l2.027-2.027c0.16-0.16 0.333-0.587 0.333-0.8v-2.88c0-1.733 1.4-3.133 3.133-3.133h2.88c0.213 0 0.64-0.173 0.8-0.333l2.027-2.027c1.173-1.173 3.253-1.173 4.427 0l2.027 2.027c0.16 0.16 0.587 0.333 0.8 0.333h2.88c1.733 0 3.133 1.4 3.133 3.133v2.88c0 0.213 0.173 0.64 0.333 0.8l2.027 2.027c0.587 0.587 0.92 1.373 0.92 2.213s-0.32 1.627-0.92 2.213l-2.027 2.027c-0.16 0.16-0.333 0.587-0.333 0.8v2.88c0 1.733-1.4 3.133-3.133 3.133h-2.88c-0.213 0-0.64 0.173-0.8 0.333l-2.027 2.027c-0.587 0.6-1.373 0.92-2.213 0.92zM6.027 18.827c0.533 0.533 0.92 1.467 0.92 2.213v2.88c0 0.627 0.507 1.133 1.133 1.133h2.88c0.747 0 1.68 0.387 2.213 0.92l2.027 2.027c0.427 0.427 1.173 0.427 1.6 0l2.027-2.027c0.533-0.533 1.467-0.92 2.213-0.92h2.88c0.627 0 1.133-0.507 1.133-1.133v-2.88c0-0.747 0.387-1.68 0.92-2.213l2.027-2.027c0.213-0.213 0.333-0.493 0.333-0.8s-0.12-0.587-0.333-0.8l-2.027-2.027c-0.533-0.533-0.92-1.467-0.92-2.213v-2.88c0-0.627-0.507-1.133-1.133-1.133h-2.88c-0.747 0-1.68-0.387-2.213-0.92l-2.027-2.027c-0.427-0.427-1.173-0.427-1.6 0l-2.027 2.027c-0.533 0.533-1.467 0.92-2.213 0.92h-2.88c-0.627 0-1.133 0.507-1.133 1.133v2.88c0 0.747-0.387 1.68-0.92 2.213l-2.027 2.027c-0.213 0.213-0.333 0.493-0.333 0.8s0.12 0.587 0.333 0.8l2.027 2.027z"></path>
<path d="M20 21.333c-0.747 0-1.347-0.6-1.347-1.333s0.6-1.333 1.333-1.333 1.333 0.6 1.333 1.333-0.587 1.333-1.32 1.333z"></path>
<path d="M12.013 13.333c-0.747 0-1.347-0.6-1.347-1.333s0.6-1.333 1.333-1.333 1.333 0.6 1.333 1.333-0.587 1.333-1.32 1.333z"></path>
<path d="M11.999 21c-0.253 0-0.507-0.093-0.707-0.293-0.387-0.387-0.387-1.027 0-1.413l8-8c0.387-0.387 1.027-0.387 1.413 0s0.387 1.027 0 1.413l-8 8c-0.2 0.2-0.453 0.293-0.707 0.293z"></path>
</symbol>
<symbol id="icon-message-question" viewBox="0 0 32 32">
<title>message-question</title>
<path d="M10.667 29.76c-0.373 0-0.76-0.093-1.107-0.28-0.76-0.4-1.227-1.2-1.227-2.053v-1.893c-4.027-0.413-6.667-3.373-6.667-7.613v-8c0-4.587 3.080-7.667 7.667-7.667h13.333c4.587 0 7.667 3.080 7.667 7.667v8c0 4.587-3.080 7.667-7.667 7.667h-5.027l-5.68 3.787c-0.387 0.253-0.84 0.387-1.293 0.387zM9.333 4.24c-3.44 0-5.667 2.227-5.667 5.667v8c0 3.44 2.227 5.667 5.667 5.667 0.547 0 1 0.453 1 1v2.84c0 0.173 0.107 0.253 0.173 0.293s0.2 0.080 0.347-0.013l5.933-3.947c0.16-0.107 0.36-0.173 0.56-0.173h5.333c3.44 0 5.667-2.227 5.667-5.667v-8c0-3.44-2.227-5.667-5.667-5.667h-13.347z"></path>
<path d="M16 16.147c-0.547 0-1-0.453-1-1v-0.28c0-1.547 1.133-2.307 1.56-2.6 0.493-0.333 0.653-0.56 0.653-0.907 0-0.667-0.547-1.213-1.213-1.213s-1.213 0.547-1.213 1.213c0 0.547-0.453 1-1 1s-1-0.453-1-1c0-1.773 1.44-3.213 3.213-3.213s3.213 1.44 3.213 3.213c0 1.52-1.12 2.28-1.533 2.56-0.52 0.347-0.68 0.573-0.68 0.947v0.28c0 0.56-0.453 1-1 1z"></path>
<path d="M16 19.467c-0.56 0-1-0.453-1-1s0.453-1 1-1 1 0.453 1 1-0.44 1-1 1z"></path>
</symbol>
<symbol id="icon-arrow-left" viewBox="0 0 32 32">
<title>arrow-left</title>
<path d="M17.993 29.221l-12.617-12.453 12.617-12.453h7.899l-12.672 12.453 12.672 12.453h-7.899z"></path>
</symbol>
<symbol id="icon-arrow-right" viewBox="0 0 32 32">
<title>arrow-right</title>
<path d="M6.144 4.315h7.899l12.617 12.453-12.617 12.453h-7.899l12.672-12.453-12.672-12.453z"></path>
</symbol>
<symbol id="icon-chevron-right" viewBox="0 0 16 16" fill="none">
<title>chevron-right</title>
<path d="m6 12 4-4-4-4" stroke="#9197B3" stroke-linecap="round" stroke-linejoin="round" stroke-width="2"/>
</symbol>
<symbol id="icon-chevron-right-current" viewBox="0 0 16 16" fill="none">
<title>chevron-right-current</title>
<path d="m6 12 4-4-4-4" stroke="#ffffff" stroke-linecap="round" stroke-linejoin="round" stroke-width="2"/>
</symbol>
<symbol id="icon-key-square"  fill="none">
<title>key-square</title>
<path d="m9 22h6c5 0 7-2 7-7v-6c0-5-2-7-7-7h-6c-5 0-7 2-7 7v6c0 5 2 7 7 7z" stroke="#9197B3" stroke-linecap="round" stroke-linejoin="round" stroke-width="1.5"/>
<path d="m16.28 13.61c-1.13 1.13-2.75 1.48-4.18 1.03l-2.59 2.58c-0.18 0.19-0.55 0.31-0.82 0.27l-1.2-0.16c-0.4-0.05-0.76-0.43-0.82-0.82l-0.16-1.2c-0.04-0.26 0.09-0.63 0.27-0.82l2.58-2.58c-0.44-1.43-0.1-3.05 1.03-4.18 1.62-1.62 4.26-1.62 5.89 0 1.62 1.61 1.62 4.25 0 5.88z" stroke="#9197B3" stroke-linecap="round" stroke-linejoin="round" stroke-miterlimit="10" stroke-width="1.5"/>
<path d="m10.45 16.28-0.85002-0.86" stroke="#9197B3" stroke-linecap="round" stroke-linejoin="round" stroke-miterlimit="10" stroke-width="1.5"/>
<path d="m13.394 10.7h9e-3" stroke="#9197B3" stroke-linecap="round" stroke-linejoin="round" stroke-width="2"/>
</symbol>
</defs>
</svg>
